<svg xmlns="http://www.w3.org/2000/svg" viewBox="0 0 64 64" role="img" aria-label="TextLock">
  <rect x="2" y="2" width="60" height="60" rx="14" fill="#10141f"/>
  <!-- speech bubble -->
  <path d="M12 16a6 6 0 0 1 6-6h28a6 6 0 0 1 6 6v18a6 6 0 0 1-6 6H30l-9 8v-8h-3a6 6 0 0 1-6-6z"
        fill="#8ba3f7"/>
  <!-- padlock -->
  <g transform="translate(24 22)">
    <rect x="0" y="7" width="16" height="12" rx="3" fill="#10141f"/>
    <path d="M3 8V6a5 5 0 0 1 10 0v2" fill="none" stroke="#10141f" stroke-width="3" stroke-linecap="round"/>
    <circle cx="8" cy="12.5" r="1.8" fill="#8ba3f7"/>
  </g>
</svg>
